<svg xmlns="http://www.w3.org/2000/svg" width="292" height="97" fill="none"><defs/><path fill="#333" d="M178.25 75.92c.3 0 .58.08.83.24.26.16.46.4.6.68.15.32.23.67.22 1.03.01.38-.07.74-.24 1.07-.15.3-.38.54-.65.7a1.68 1.68 0 01-1.6.09c-.2-.1-.38-.25-.52-.43v.49h-.9v-6.82h.9v3.51c.16-.18.35-.32.57-.4a2 2 0 01.8-.16zm-.31 3.13a.93.93 0 00.74-.34 1.19 1.19 0 00.3-.84c0-.21-.04-.42-.13-.6a1.1 1.1 0 00-.38-.42 1.09 1.09 0 00-1.2.06c-.18.13-.32.32-.39.55v.83c.08.22.22.42.4.56.2.14.42.21.66.2zm6.25-2.96h.82l-2.2 5.47h-.87l.8-1.93-1.59-3.54h1.02l1.01 2.44 1.01-2.44zm8.01-.17c.3 0 .58.08.83.24.26.16.46.4.6.68.15.32.23.67.22 1.03.01.38-.07.74-.24 1.07-.15.3-.38.54-.65.7a1.68 1.68 0 01-1.6.09c-.2-.1-.38-.25-.52-.43v.49h-.9v-6.82h.9v3.51c.16-.18.35-.32.57-.4a2 2 0 01.8-.16zm-.31 3.13c.14 0 .27-.02.4-.08a1 1 0 00.34-.26 1.2 1.2 0 00.3-.84c0-.21-.05-.42-.14-.6a1.09 1.09 0 00-.38-.42 1.1 1.1 0 00-1.2.06c-.17.13-.31.32-.38.55v.83c.07.22.21.42.4.56.19.14.42.21.65.2zm4.58-2.1a2.05 2.05 0 01.9-.9c.14-.08.29-.12.44-.13l-.03.98c-.23-.02-.46.03-.66.15-.2.11-.35.28-.45.49-.1.2-.16.42-.16.66v1.59h-.9v-3.7h.8l.06.85zm5.44-.86h.9v3.7H202l-.06-.67a1.42 1.42 0 01-1.3.82 1.05 1.05 0 01-1.02-.67 1.14 1.14 0 01-.08-.44V76.1h.9v2.4a.6.6 0 00.15.45c.05.06.12.1.19.13s.14.04.22.04c.13 0 .26-.04.37-.11a.8.8 0 00.29-.29c.18-.29.27-.63.26-.99l-.01-1.63zm5.17-.16a1.09 1.09 0 011.12 1.1v2.75h-.9v-2.4a.74.74 0 00-.15-.45.57.57 0 00-.2-.13.77.77 0 00-.62.06.85.85 0 00-.3.29 1.7 1.7 0 00-.26.99v1.64h-.9v-3.7h.81l.06.66c.12-.25.31-.46.54-.6.25-.15.53-.22.8-.21zm5.9.16h.82v3.7h-.9v-.54c-.13.18-.3.32-.49.43-.22.14-.48.2-.73.2-.3 0-.6-.07-.88-.22a1.57 1.57 0 01-.6-.66 2.28 2.28 0 01-.23-1.06c-.01-.37.07-.73.23-1.06.14-.3.36-.54.62-.7.26-.17.56-.26.86-.26.24-.01.48.04.7.16.21.11.4.29.53.5l.06-.5zm-1.05 3c.22 0 .44-.07.62-.21.17-.15.3-.35.36-.59v-.8c-.06-.22-.2-.42-.38-.55a1.03 1.03 0 00-1.03-.13.98.98 0 00-.33.25 1.23 1.23 0 00-.3.83c0 .21.05.42.15.6.1.18.22.33.38.43.16.1.34.16.53.16z"/><path stroke="#333" stroke-linecap="round" d="M169.95 77.27h-12.02M231.84 77.27h-12.02"/><g filter="url(#filter0_d)"><path fill="#333" d="M102.34 58.02V30.07h7.3c2.8-.11 5.56.6 8 2.08 1.99 1.24 3.6 3.1 4.6 5.33a16.97 16.97 0 011.45 6.95c.05 2.52-.55 5-1.74 7.16a12.34 12.34 0 01-4.68 4.76 12.68 12.68 0 01-6.39 1.67h-8.54zm4.13-4.3h3.67A10.2 10.2 0 00115 52.6a7.9 7.9 0 003.29-3.28 10.72 10.72 0 001.18-5.2c.06-1.93-.38-3.84-1.29-5.5a8.18 8.18 0 00-3.28-3.25 8.81 8.81 0 00-4.11-1.04h-4.31v19.39zm29.12 1.03a5.6 5.6 0 003.35-1.26l1.8 3.18c-.8.54-1.67.98-2.57 1.29a8.63 8.63 0 01-7.11-.63 7.44 7.44 0 01-2.9-3.07 9.7 9.7 0 01-1-4.5 8.74 8.74 0 014.2-7.54 8.05 8.05 0 014.23-1.17 6.98 6.98 0 015.05 1.94 9.95 9.95 0 012.68 5.47l-11.5 4.22c.39.66.93 1.19 1.58 1.54a4.5 4.5 0 002.19.53zm-.32-10.32c-.57-.02-1.14.1-1.67.34-.53.25-1 .61-1.38 1.08a5.57 5.57 0 00-1.18 3.68c0 .22 0 .44.03.66l7.84-3.04a4.86 4.86 0 00-1.34-1.95 3.37 3.37 0 00-2.3-.77zm16.41 13.93a8.06 8.06 0 01-3.26-.67 6.54 6.54 0 01-2.52-1.9l1.66-2.42a5.57 5.57 0 001.72 1.42c.65.34 1.36.54 2.09.58.6.02 1.2-.13 1.74-.44.22-.13.4-.32.52-.56.12-.23.18-.5.17-.77.01-.28-.05-.55-.17-.8-.13-.24-.31-.44-.53-.58a6.78 6.78 0 00-1.57-.75l-1.12-.36a5.85 5.85 0 01-2.89-1.9 4.7 4.7 0 01-.95-2.94c0-.88.2-1.75.62-2.51a4.75 4.75 0 011.87-1.9c.94-.52 2-.77 3.05-.73 1-.02 1.99.12 2.95.42.85.29 1.64.75 2.34 1.34l-1.52 2.58c-.44-.45-.96-.8-1.53-1.04a4.23 4.23 0 00-1.64-.39 2.42 2.42 0 00-1.52.47c-.18.12-.34.3-.44.5-.1.21-.16.45-.16.69-.02.26.02.52.13.75.1.24.27.43.47.57.65.4 1.33.71 2.05.94.4.13.66.22.77.27a6.5 6.5 0 012.76 1.7 4.22 4.22 0 01.99 2.86 5.6 5.6 0 01-.4 2.18c-.26.68-.67 1.3-1.18 1.8a6.02 6.02 0 01-4.5 1.6zm22.45-16.58h3.64v16.24h-3.95v-2.34a8.42 8.42 0 01-2.2 1.9c-.97.59-2.08.89-3.2.86a7.55 7.55 0 01-3.85-.98 6.88 6.88 0 01-2.68-2.9 10.05 10.05 0 01-1-4.64c-.02-1.63.33-3.23 1.03-4.67a7.76 7.76 0 012.74-3.1 6.84 6.84 0 013.75-1.1 5.7 5.7 0 013.08.67 6.3 6.3 0 012.36 2.25l.28-2.19zm-4.62 13.13a4.2 4.2 0 002.74-.9 4.85 4.85 0 001.57-2.56v-3.53a4.52 4.52 0 00-6.17-2.98 4.3 4.3 0 00-1.46 1.08 5.37 5.37 0 00-1.3 3.67c-.01.93.2 1.84.63 2.65.4.77 1 1.42 1.7 1.88.69.45 1.48.7 2.29.69zm23.54-13.86a6.9 6.9 0 016.43 4.15c.66 1.44.98 3.03.95 4.64a9.58 9.58 0 01-1.04 4.57 7.24 7.24 0 01-2.9 3 8.42 8.42 0 01-4.18 1.03 6.6 6.6 0 01-5.12-2.42v9.79h-3.95V41.47h3.42l.36 2.42a8.96 8.96 0 012.7-2.07 7.35 7.35 0 013.33-.77zm-1.52 13.97c.85.01 1.68-.22 2.42-.67a5.08 5.08 0 002.46-4.43 5.56 5.56 0 00-1.33-3.74 4.39 4.39 0 00-1.49-1.12 4.07 4.07 0 00-1.77-.36 4.6 4.6 0 00-4.63 3.49v3.26a4.58 4.58 0 001.54 2.58 4.2 4.2 0 002.8 1zm20.26-.27a5.6 5.6 0 003.36-1.26l1.8 3.18c-.8.54-1.67.98-2.58 1.29a8.63 8.63 0 01-7.11-.63 7.44 7.44 0 01-2.9-3.07 9.7 9.7 0 01-1-4.5 8.74 8.74 0 014.2-7.54 8.05 8.05 0 014.23-1.17 6.98 6.98 0 015.05 1.94 9.95 9.95 0 012.69 5.47l-11.51 4.22c.4.66.94 1.19 1.59 1.54a4.5 4.5 0 002.18.53zm-.31-10.32c-.58-.02-1.15.1-1.67.34-.53.25-1 .61-1.39 1.08a5.56 5.56 0 00-1.18 3.68c0 .22.01.44.04.66l7.83-3.04a4.86 4.86 0 00-1.34-1.95 3.36 3.36 0 00-2.3-.77zm24.46-2.65h3.63v16.31a7.7 7.7 0 01-4.22 6.97 9.46 9.46 0 01-4.5 1.06 8.9 8.9 0 01-4.05-.83 14.2 14.2 0 01-3.29-2.4l2.33-2.95a9.83 9.83 0 002.3 1.78c.82.44 1.73.65 2.64.63 1.26.08 2.5-.34 3.5-1.17.43-.38.77-.86 1-1.41a4.3 4.3 0 00.34-1.75v-2.73a5.8 5.8 0 01-2.31 2.29c-1.12.6-2.34.89-3.59.86a6.75 6.75 0 01-3.77-1.13 8.05 8.05 0 01-2.75-3.11 9.4 9.4 0 01-1.03-4.4 9.34 9.34 0 011.08-4.47 8.25 8.25 0 012.86-3.15 6.96 6.96 0 013.8-1.13 8.01 8.01 0 013.4.71 5.46 5.46 0 012.31 1.86l.32-1.84zm-5.05 13.13a4.79 4.79 0 004.73-3.42v-3.53a4.75 4.75 0 00-1.77-2.46 4.91 4.91 0 00-2.96-.92c-.62-.02-1.24.1-1.82.35a4.95 4.95 0 00-2.59 2.77 5.3 5.3 0 00-.32 1.99c-.01.93.21 1.84.64 2.65.4.77 1 1.42 1.7 1.88.73.46 1.55.7 2.39.69zm24.53-13.13h3.95v16.24h-3.56l-.25-2.92a6.2 6.2 0 01-5.75 3.6 4.61 4.61 0 01-4.45-2.95 5.04 5.04 0 01-.35-1.92V41.78h3.95V52.3c.07 1.79.88 2.7 2.44 2.72.57 0 1.14-.16 1.64-.46.5-.3.93-.74 1.23-1.26.8-1.28 1.2-2.8 1.15-4.34v-7.18zm16.63 12.97a5.6 5.6 0 003.35-1.26l1.8 3.18c-.8.54-1.67.98-2.58 1.29a8.63 8.63 0 01-7.11-.63 7.44 7.44 0 01-2.9-3.07 9.7 9.7 0 01-1-4.5 8.74 8.74 0 014.2-7.54 8.05 8.05 0 014.24-1.17 6.98 6.98 0 015.04 1.94 9.94 9.94 0 012.69 5.47l-11.51 4.22c.4.66.94 1.19 1.59 1.54a4.5 4.5 0 002.19.53zm-.32-10.32c-.58-.02-1.15.1-1.67.34-.53.25-1 .61-1.38 1.08a5.56 5.56 0 00-1.19 3.68c0 .22.01.44.04.66l7.83-3.04a4.86 4.86 0 00-1.34-1.95 3.36 3.36 0 00-2.3-.77zm11.93-2.65h3.95v16.24h-3.95V41.78zm-.18-5.8c0-.3.06-.62.19-.9.12-.28.3-.53.52-.73a2.15 2.15 0 013.12 0c.22.2.4.45.51.73.12.29.18.6.18.9 0 .31-.06.62-.18.9-.12.27-.29.52-.5.72a2.18 2.18 0 01-3.13 0 2.17 2.17 0 01-.7-1.61z"/></g><g filter="url(#filter1_d)"><path fill="#333" d="M30.69 34.03a.91.91 0 01-.06-1.22l.78-.96-2.58.15a3.48 3.48 0 01-2.33-.75 4.02 4.02 0 01-1.4-2.16c-.23-.87-.18-1.8.14-2.64a3.9 3.9 0 011.63-1.96l5.97-3.5a1.78 1.78 0 00.28 1.48c.2.27.47.46.78.54l-5.99 3.5c-.26.16-.47.39-.62.67a1.81 1.81 0 00.31 2.08c.3.3.7.45 1.12.42l2.57-.15-.89-.86a.91.91 0 01-.06-1.21.78.78 0 01.55-.29c.21-.01.42.07.58.22l2.6 2.53a.91.91 0 01.06 1.22l-2.33 2.81a.78.78 0 01-.24.21.72.72 0 01-.6.04.78.78 0 01-.27-.17zm26.24-3.7a1.66 1.66 0 00.4-1.18 1.74 1.74 0 00-.5-1.14l2.94-.17c.35-.02.68-.17.94-.43.26-.26.44-.6.5-.98.05-.38-.02-.76-.2-1.1a1.6 1.6 0 00-.76-.73l-7.06-3.1.54 1.24a.91.91 0 01-.12.95.79.79 0 01-.25.2c-.2.1-.42.1-.62.03a.83.83 0 01-.45-.45l-1.49-3.44a.93.93 0 01.14-.95.8.8 0 01.25-.2l3.16-1.6a.72.72 0 01.6-.03.8.8 0 01.37.3.91.91 0 01.04.96.82.82 0 01-.34.33l-1 .51 7.07 3.11c.77.35 1.4.97 1.81 1.76a4.3 4.3 0 01-.76 4.93c-.62.6-1.41.96-2.25 1.01l-2.96.17zm-18.87-7.42l-3.3-1.22a.78.78 0 01-.27-.17.92.92 0 01-.23-.93L35.39 17c.03-.11.09-.21.15-.3a.78.78 0 01.25-.2.74.74 0 01.88.12.94.94 0 01.22.94l-.4 1.28 6-3.52-.14-2.78c-.02-.54.12-1.07.4-1.51.27-.45.68-.78 1.14-.96.51-.19.93-.58 1.18-1.1.26-.5.32-1.1.18-1.67a2.45 2.45 0 00-.65-1.13c-.31-.3-.7-.5-1.1-.58a1.96 1.96 0 00-1.77.57 2.66 2.66 0 00-.68 1.85l-2.13.13c-.04-.69.06-1.37.3-2.01a4.54 4.54 0 013.01-2.76 3.93 3.93 0 012.17.07c.7.22 1.34.64 1.85 1.22.51.57.88 1.27 1.07 2.05a5.01 5.01 0 01-.36 3.35 4.4 4.4 0 01-2.36 2.2.19.19 0 00-.07.06.21.21 0 00-.05.09l.14 2.78 5.52 2.44c-.28.13-.52.35-.68.63a1.74 1.74 0 00-.09 1.55l-5.7-2.52-6.14 3.6 1.06.38a.85.85 0 01.46.43.91.91 0 01-.24 1.07.77.77 0 01-.44.18c-.1 0-.2-.01-.3-.05z"/></g><g filter="url(#filter2_d)"><path fill="#FCE4EC" stroke="#333" stroke-linecap="square" stroke-linejoin="round" stroke-width="2.5" d="M40.12 39.2L8 76.93s9.44.82 15.75 3c6.73 2.31 15.83 6.32 26.25 6.32 19.77 0 37.06-9.32 37.06-9.32L50 39.2s6.55-8.26 3.82-12.29c-2.72-4.02-8.76 2.33-8.76 2.33s-4.26-5.54-7.57-1.97c-3.3 3.58 2.63 11.93 2.63 11.93z"/></g><path fill="#F48FB1" stroke="#333" stroke-linecap="square" stroke-linejoin="round" stroke-width="2.5" d="M8 76.93s9.44.82 15.75 3C30.5 82.23 39.6 86.24 50 86.24c19.77 0 37.06-9.32 37.06-9.32S83.84 90.7 62.9 87.1C49.7 84.84 20.92 55.96 8 76.93z"/><defs><filter id="filter0_d" width="189.66" height="39.06" x="102.34" y="30.06" color-interpolation-filters="sRGB" filterUnits="userSpaceOnUse"><feFlood flood-opacity="0" result="BackgroundImageFix"/><feColorMatrix in="SourceAlpha" result="hardAlpha" values="0 0 0 0 0 0 0 0 0 0 0 0 0 0 0 0 0 0 127 0"/><feOffset dx="3" dy="2"/><feGaussianBlur stdDeviation=".5"/><feColorMatrix values="0 0 0 0 0.956863 0 0 0 0 0.560784 0 0 0 0 0.694118 0 0 0 0.749 0"/><feBlend in2="BackgroundImageFix" result="effect1_dropShadow"/><feBlend in="SourceGraphic" in2="effect1_dropShadow" result="shape"/></filter><filter id="filter1_d" width="42.41" height="33.99" x="24.96" y="3.26" color-interpolation-filters="sRGB" filterUnits="userSpaceOnUse"><feFlood flood-opacity="0" result="BackgroundImageFix"/><feColorMatrix in="SourceAlpha" result="hardAlpha" values="0 0 0 0 0 0 0 0 0 0 0 0 0 0 0 0 0 0 127 0"/><feOffset dx="3" dy="2"/><feGaussianBlur stdDeviation=".5"/><feColorMatrix values="0 0 0 0 0.988235 0 0 0 0 0.894118 0 0 0 0 0.92549 0 0 0 1 0"/><feBlend in2="BackgroundImageFix" result="effect1_dropShadow"/><feBlend in="SourceGraphic" in2="effect1_dropShadow" result="shape"/></filter><filter id="filter2_d" width="93.56" height="75.17" x=".75" y="21.33" color-interpolation-filters="sRGB" filterUnits="userSpaceOnUse"><feFlood flood-opacity="0" result="BackgroundImageFix"/><feColorMatrix in="SourceAlpha" result="hardAlpha" values="0 0 0 0 0 0 0 0 0 0 0 0 0 0 0 0 0 0 127 0"/><feOffset dy="3"/><feGaussianBlur stdDeviation="3"/><feColorMatrix values="0 0 0 0 0.2 0 0 0 0 0.2 0 0 0 0 0.2 0 0 0 0.749 0"/><feBlend in2="BackgroundImageFix" result="effect1_dropShadow"/><feBlend in="SourceGraphic" in2="effect1_dropShadow" result="shape"/></filter></defs></svg>